<mxfile host="drawio-plugin" modified="2021-12-06T09:12:00.968Z" agent="5.0 (Windows NT 6.2; Win64; x64) AppleWebKit/537.36 (KHTML, like Gecko) Chrome/89.0.4389.114 Safari/537.36" etag="eKKfHoa7HxKIrnGpDntb" version="14.7.4" type="embed" pages="2"><diagram name="Роли" id="Роли"><mxGraphModel dx="793" dy="380" grid="1" gridSize="10" guides="1" tooltips="1" connect="1" arrows="1" fold="1" page="1" pageScale="1" pageWidth="827" pageHeight="1169" math="0" shadow="0"><root><mxCell id="0"/><mxCell id="1" value="Соединительная линия" parent="0"/><mxCell id="14" style="vsdxID=39;fillColor=#ffffff;gradientColor=none;shape=stencil(tZPdEoIgEIWfhksdhTHr2uo9mERlInFWSnv7oKUaKp2aqbv9+XY5coSwom94JwhNegN6LwZZmoawNaFUto0AaWxE2IawotIgatDHtsS844500UGf3IYR57LEjdDkjCnNrukWUQ472wKPpss4XyENHk9pnDEsvd/nszHio+wj0IYbqdugpzjUIrJHRZXitd+LrX4Qonsp/0yc/9i/qLPB48orqRQ6du9P+REqZHkcGKJkO+3dPJwm83Qow91dgN/GPxGymEGX+fziL/7OLzQEbjw5YYPnx2JL+NDY5gI=);strokeColor=#000000;strokeWidth=2;spacingTop=-3;spacingBottom=-3;spacingLeft=-3;spacingRight=-3;labelBackgroundColor=#FFFFFF;rounded=0;html=1;whiteSpace=wrap;" parent="1" vertex="1"><mxGeometry x="66.13" y="50" width="33" height="66" as="geometry"/></mxCell><mxCell id="15" value="&lt;div style=&quot;font-size: 1px&quot;&gt;&lt;p style=&quot;align:center;margin-left:0;margin-right:0;margin-top:0px;margin-bottom:0px;text-indent:0;valign:middle;direction:rtl;&quot;&gt;&lt;font style=&quot;font-size:12.7px;font-family:Tahoma;color:#000000;direction:ltr;letter-spacing:0px;line-height:120%;opacity:1&quot;&gt;П&lt;/font&gt;&lt;font style=&quot;font-size:12.7px;font-family:Tahoma;color:#000000;direction:ltr;letter-spacing:0px;line-height:120%;opacity:1&quot;&gt;0&lt;/font&gt;&lt;font style=&quot;font-size:12.7px;font-family:Tahoma;color:#000000;direction:ltr;letter-spacing:0px;line-height:120%;opacity:1&quot;&gt;.Пользователь&lt;br/&gt;&lt;/font&gt;&lt;/p&gt;&lt;/div&gt;" style="text;vsdxID=39;fillColor=none;gradientColor=none;strokeColor=none;strokeWidth=2;spacingTop=-3;spacingBottom=-3;spacingLeft=-3;spacingRight=-3;labelBackgroundColor=#FFFFFF;rounded=0;html=1;whiteSpace=wrap;verticalAlign=middle;align=center;;html=1;" parent="14" vertex="1"><mxGeometry x="-36.13" y="28.98" width="104.26" height="15.25" as="geometry"/></mxCell><mxCell id="18" style="vsdxID=43;fillColor=#ffffff;gradientColor=#9cc3e5;shape=stencil(tZPdEoIgEIWfhksdhTHr2uo9mERlInFWSnv7oKUaKp2aqbv9+XY5coSwom94JwhNegN6LwZZmoawNaFUto0AaWxE2IawotIgatDHtsS844500UGf3IYR57LEjdDkjCnNrukWUQ472wKPpss4XyENHk9pnDEsvd/nszHio+wj0IYbqdugpzjUIrJHRZXitd+LrX4Qonsp/0yc/9i/qLPB48orqRQ6du9P+REqZHkcGKJkO+3dPJwm83Qow91dgN/GPxGymEGX+fziL/7OLzQEbjw5YYPnx2JL+NDY5gI=);strokeColor=#003399;strokeWidth=2;spacingTop=-3;spacingBottom=-3;spacingLeft=-3;spacingRight=-3;labelBackgroundColor=#FFFFFF;rounded=0;html=1;whiteSpace=wrap;" parent="1" vertex="1"><mxGeometry x="66.13" y="178" width="33" height="66" as="geometry"/></mxCell><mxCell id="19" value="&lt;div style=&quot;font-size: 1px&quot;&gt;&lt;p style=&quot;margin-left: 0 ; margin-right: 0 ; margin-top: 0px ; margin-bottom: 0px ; text-indent: 0 ; direction: rtl&quot;&gt;&lt;font style=&quot;font-size: 12.7px ; font-family: &amp;#34;tahoma&amp;#34; ; color: #000000 ; direction: ltr ; letter-spacing: 0px ; line-height: 90% ; opacity: 1&quot;&gt;&lt;span style=&quot;font-size: 12.7px&quot;&gt;П1.Оператор БД&lt;/span&gt;&lt;br&gt;&lt;/font&gt;&lt;/p&gt;&lt;/div&gt;" style="text;vsdxID=43;fillColor=none;gradientColor=none;strokeColor=none;strokeWidth=2;spacingTop=-3;spacingBottom=-3;spacingLeft=-3;spacingRight=-3;labelBackgroundColor=#FFFFFF;rounded=0;html=1;whiteSpace=wrap;verticalAlign=middle;align=center;;html=1;" parent="18" vertex="1"><mxGeometry x="-14.87" y="26.57" width="64.95" height="22.87" as="geometry"/></mxCell><mxCell id="26" value="&lt;div style=&quot;font-size: 1px&quot;&gt;&lt;p style=&quot;align:left;margin-left:25;margin-right:0;margin-top:0px;margin-bottom:0px;text-indent:-25.4;valign:top;direction:ltr;&quot;&gt;&lt;ul style=&quot;margin: 0;list-style-type: disc&quot;&gt;&lt;font style=&quot;font-size:11.29px;font-family:Tahoma;color:#000000;direction:ltr;letter-spacing:0px;line-height:90%;opacity:1&quot;&gt;&lt;li&gt;Многофункциональные центры предоставления государственных и муниципальных услуг в Санкт-Петербурге (МФЦ)&lt;/font&gt;&lt;/li&gt;&lt;/ul&gt;&lt;/p&gt;&lt;/div&gt;" style="verticalAlign=top;align=left;vsdxID=53;fillColor=#fef7e2;gradientColor=none;fillOpacity=50;shape=stencil(nZBLDoAgDERP0z3SIyjew0SURgSD+Lu9kMZoXLhwN9O+tukAlrNpJg1SzDH4QW/URgNYgZTkjA4UkwJUgGXng+6DX1zLfmoymdXo17xh5zmRJ6Q42BWCfc2oJfdAr+Yv+AP9Cb7OJ3H/2JG1HNGz/84klThPVCc=);strokeColor=#003399;labelBackgroundColor=none;rounded=0;html=1;whiteSpace=wrap;" parent="1" vertex="1"><mxGeometry x="110" y="680" width="651" height="31" as="geometry"/></mxCell><mxCell id="27" style="vsdxID=57;fillColor=#ffffff;gradientColor=#9cc3e5;shape=stencil(nZLRDsIgDEW/pq+GleB8n/M/lowJEWFhOPXvheBUlozMvbX0tLnlFmg1iKbngGRw1lz4XbZOAD0CotSCW+l8BLQGWnXG8rM1N93GvG8CGaKrGcOER+xDElqQPJP0FFEl9Q962IxmSNxKpqgPvht2Uqn4QZ/60vrpTFru2LIA9g9ckDydyijwXZ3wqX2NkH3OiDI/OJXB1juc1ZC4MXPCB/Pb9E/xrmn9Ag==);strokeColor=#003399;strokeWidth=2;spacingTop=-3;spacingBottom=-3;spacingLeft=-3;spacingRight=-3;labelBackgroundColor=#FFFFFF;rounded=0;html=1;whiteSpace=wrap;" parent="1" vertex="1"><mxGeometry x="430" y="500" width="33" height="66" as="geometry"/></mxCell><mxCell id="28" value="&lt;div style=&quot;font-size: 1px&quot;&gt;&lt;p style=&quot;align:center;margin-left:0;margin-right:0;margin-top:0px;margin-bottom:0px;text-indent:0;valign:middle;direction:rtl;&quot;&gt;&lt;font style=&quot;font-size:12.7px;font-family:Tahoma;color:#000000;direction:ltr;letter-spacing:0px;line-height:90%;opacity:1&quot;&gt;Р7.Оператор МФЦ ГУ&lt;br/&gt;&lt;/font&gt;&lt;/p&gt;&lt;/div&gt;" style="text;vsdxID=57;fillColor=none;gradientColor=none;strokeColor=none;strokeWidth=2;spacingTop=-3;spacingBottom=-3;spacingLeft=-3;spacingRight=-3;labelBackgroundColor=#FFFFFF;rounded=0;html=1;whiteSpace=wrap;verticalAlign=middle;align=center;;html=1;" parent="27" vertex="1"><mxGeometry x="-46.29" y="32.28" width="127.79" height="11.44" as="geometry"/></mxCell><mxCell id="29" value="&lt;div style=&quot;font-size: 1px&quot;&gt;&lt;p style=&quot;align:left;margin-left:25;margin-right:0;margin-top:0px;margin-bottom:0px;text-indent:-25.4;valign:top;direction:ltr;&quot;&gt;&lt;ul style=&quot;margin: 0;list-style-type: disc&quot;&gt;&lt;font style=&quot;font-size:11.29px;font-family:Tahoma;color:#000000;direction:ltr;letter-spacing:0px;line-height:90%;opacity:1&quot;&gt;&lt;li&gt;Свидетель – это очевидец происшествия, имеющий значимые при расследовании инцидента факты и обстоятельства. Отличие между очевидцем и свидетелем заключается в том, что очевидец становится свидетелем после предоставления своих показаний инспектору ДПС и подтверждения их в суде.&lt;/font&gt;&lt;/li&gt;&lt;/ul&gt;&lt;/p&gt;&lt;/div&gt;" style="verticalAlign=top;align=left;vsdxID=59;fillColor=#fef7e2;gradientColor=none;fillOpacity=50;shape=stencil(nZBLDoAgDERP0z3SIyjew0SURgSD+Lu9kMZoXLhwN9O+tukAlrNpJg1SzDH4QW/URgNYgZTkjA4UkwJUgGXng+6DX1zLfmoymdXo17xh5zmRJ6Q42BWCfc2oJfdAr+Yv+AP9Cb7OJ3H/2JG1HNGz/84klThPVCc=);strokeColor=#003399;labelBackgroundColor=none;rounded=0;html=1;whiteSpace=wrap;" parent="1" vertex="1"><mxGeometry x="111" y="608" width="650" height="51" as="geometry"/></mxCell><mxCell id="34" style="vsdxID=64;fillColor=#ffffff;gradientColor=#9cc3e5;shape=stencil(tZPdEoIgEIWfhksdhTHr2uo9mERlInFWSnv7oKUaKp2aqbv9+XY5coSwom94JwhNegN6LwZZmoawNaFUto0AaWxE2IawotIgatDHtsS844500UGf3IYR57LEjdDkjCnNrukWUQ472wKPpss4XyENHk9pnDEsvd/nszHio+wj0IYbqdugpzjUIrJHRZXitd+LrX4Qonsp/0yc/9i/qLPB48orqRQ6du9P+REqZHkcGKJkO+3dPJwm83Qow91dgN/GPxGymEGX+fziL/7OLzQEbjw5YYPnx2JL+NDY5gI=);strokeColor=#003399;strokeWidth=2;spacingTop=-3;spacingBottom=-3;spacingLeft=-3;spacingRight=-3;labelBackgroundColor=#FFFFFF;rounded=0;html=1;whiteSpace=wrap;" parent="1" vertex="1"><mxGeometry x="565" y="500" width="33" height="66" as="geometry"/></mxCell><mxCell id="35" value="&lt;div style=&quot;font-size: 1px&quot;&gt;&lt;p style=&quot;align:center;margin-left:0;margin-right:0;margin-top:0px;margin-bottom:0px;text-indent:0;valign:middle;direction:rtl;&quot;&gt;&lt;font style=&quot;font-size:12.7px;font-family:Tahoma;color:#000000;direction:ltr;letter-spacing:0px;line-height:90%;opacity:1&quot;&gt;П7.Страхователь&lt;br/&gt;&lt;/font&gt;&lt;/p&gt;&lt;/div&gt;" style="text;vsdxID=64;fillColor=none;gradientColor=none;strokeColor=none;strokeWidth=2;spacingTop=-3;spacingBottom=-3;spacingLeft=-3;spacingRight=-3;labelBackgroundColor=#FFFFFF;rounded=0;html=1;whiteSpace=wrap;verticalAlign=middle;align=center;;html=1;" parent="34" vertex="1"><mxGeometry x="-33.94" y="32.28" width="103.1" height="11.44" as="geometry"/></mxCell><mxCell id="36" style="vsdxID=71;fillColor=#ffffff;gradientColor=#9cc3e5;shape=stencil(tZPdEoIgEIWfhksdhTHr2uo9mERlInFWSnv7oKUaKp2aqbv9+XY5coSwom94JwhNegN6LwZZmoawNaFUto0AaWxE2IawotIgatDHtsS844500UGf3IYR57LEjdDkjCnNrukWUQ472wKPpss4XyENHk9pnDEsvd/nszHio+wj0IYbqdugpzjUIrJHRZXitd+LrX4Qonsp/0yc/9i/qLPB48orqRQ6du9P+REqZHkcGKJkO+3dPJwm83Qow91dgN/GPxGymEGX+fziL/7OLzQEbjw5YYPnx2JL+NDY5gI=);strokeColor=#003399;strokeWidth=2;spacingTop=-3;spacingBottom=-3;spacingLeft=-3;spacingRight=-3;labelBackgroundColor=#FFFFFF;rounded=0;html=1;whiteSpace=wrap;" parent="1" vertex="1"><mxGeometry x="676" y="500" width="33" height="66" as="geometry"/></mxCell><mxCell id="37" value="&lt;div style=&quot;font-size: 1px&quot;&gt;&lt;p style=&quot;align:center;margin-left:0;margin-right:0;margin-top:0px;margin-bottom:0px;text-indent:0;valign:middle;direction:rtl;&quot;&gt;&lt;font style=&quot;font-size:12.7px;font-family:Tahoma;color:#000000;direction:ltr;letter-spacing:0px;line-height:90%;opacity:1&quot;&gt;П6.Владелец&lt;br/&gt;автомобиля&lt;br/&gt;&lt;/font&gt;&lt;/p&gt;&lt;/div&gt;" style="text;vsdxID=71;fillColor=none;gradientColor=none;strokeColor=none;strokeWidth=2;spacingTop=-3;spacingBottom=-3;spacingLeft=-3;spacingRight=-3;labelBackgroundColor=#FFFFFF;rounded=0;html=1;whiteSpace=wrap;verticalAlign=middle;align=center;;html=1;" parent="36" vertex="1"><mxGeometry x="-22.04" y="26.57" width="79.3" height="22.87" as="geometry"/></mxCell><mxCell id="53" value="&lt;div style=&quot;font-size: 1px&quot;&gt;&lt;p style=&quot;align:left;margin-left:0;margin-right:0;margin-top:0px;margin-bottom:0px;text-indent:0;valign:middle;direction:ltr;&quot;&gt;&lt;/p&gt;&lt;/div&gt;" style="vsdxID=46;edgeStyle=none;startArrow=none;endFill=0;endArrow=block;startSize=5;endSize=7;strokeColor=#6b9bc7;spacingTop=0;spacingBottom=0;spacingLeft=0;spacingRight=0;verticalAlign=middle;html=1;labelBackgroundColor=#FFFFFF;rounded=0;align=left;exitX=0.48484848484848486;exitY=-0.12121212121212122;exitDx=0;exitDy=0;exitPerimeter=0;entryX=0.48484848484848486;entryY=1;entryDx=0;entryDy=0;entryPerimeter=0;" parent="1" source="18" target="14" edge="1"><mxGeometry relative="1" as="geometry"><mxPoint x="-1" as="offset"/><Array as="points"><mxPoint x="82.43999999999994" y="146.4"/></Array></mxGeometry></mxCell></root></mxGraphModel></diagram><diagram name="МИ ГЗПН" id="МИ_ГЗН"><mxGraphModel dx="793" dy="380" grid="1" gridSize="10" guides="1" tooltips="1" connect="1" arrows="1" fold="1" page="1" pageScale="1" pageWidth="827" pageHeight="1169" math="0" shadow="0"><root><mxCell id="0"/><mxCell id="1" value="Соединительная линия" parent="0"/><mxCell id="2" value="&lt;div style=&quot;font-size: 1px&quot;&gt;&lt;p style=&quot;align:left;margin-left:0;margin-right:0;margin-top:0px;margin-bottom:0px;text-indent:0;valign:top;direction:ltr;&quot;&gt;&lt;/p&gt;&lt;/div&gt;" style="verticalAlign=top;align=left;vsdxID=1;fillColor=#fef7e2;gradientColor=none;fillOpacity=50;shape=stencil(nZFLDsIwDERP4y0KyQKxLuUCnCAihliEpEpL+ZyetANS6YJFs7JnXmxpTKZqvW2YtGq7nC58F9d5MjvSWqLnLF2pyNRkqlPKfM7pFh36xhZSq1Fhhz/rgdbK5uNBXgxts9r+PjAYck39sPwBVMF6foYp9HugQeIE/ZqL4D/oQnC2vhRjPAhOQkC6U38eZ5FwClO/AQ==);strokeColor=#003399;labelBackgroundColor=none;rounded=1;html=1;whiteSpace=wrap;" parent="1" vertex="1"><mxGeometry x="133" y="48" width="590" height="532" as="geometry"/></mxCell><mxCell id="3" value="&lt;div style=&quot;font-size: 1px&quot;&gt;&lt;p style=&quot;align:center;margin-left:0;margin-right:0;margin-top:0px;margin-bottom:0px;text-indent:0;valign:middle;direction:ltr;&quot;&gt;&lt;font style=&quot;font-size:11.29px;font-family:Tahoma;color:#000000;direction:ltr;letter-spacing:0px;line-height:80%;opacity:1&quot;&gt;ВИ.1.01.Сформировать набор автомобильных номеров для читалки согласно заданному шаблону &lt;br/&gt;&lt;/font&gt;&lt;/p&gt;&lt;/div&gt;" style="verticalAlign=middle;align=center;vsdxID=2;fillColor=#f4f8fa;gradientColor=#c0cee2;shape=stencil(vVHLDsIgEPwajiQI6RfU+h8bu22JCGRB2/69kG1iazx58DazM/vIjjBtmiCi0CplCjecbZ8nYc5Ca+snJJsLEqYTph0C4Ujh4XvmEaqzont41gkL96naodXKrGF6YSfQtUi0OXXDVlqPfJNP6usotUhYbJIUMmQb/GGrAxpRljVycDBuc1hKM2LclX8/7H9nFfB+82Cd45T2+mcspcSRmu4F);strokeColor=#003399;spacingTop=4;spacingBottom=-1;labelBackgroundColor=none;rounded=0;html=1;whiteSpace=wrap;" parent="1" vertex="1"><mxGeometry x="148" y="94" width="140" height="74" as="geometry"/></mxCell><mxCell id="4" value="&lt;div style=&quot;font-size: 1px&quot;&gt;&lt;p style=&quot;align:center;margin-left:0;margin-right:0;margin-top:0px;margin-bottom:0px;text-indent:0;valign:middle;direction:ltr;&quot;&gt;&lt;font style=&quot;font-size:11.29px;font-family:Tahoma;color:#000000;direction:ltr;letter-spacing:0px;line-height:80%;opacity:1&quot;&gt;ВИ.1.02.Сформировать набор вариантов прочтения заданного набора номеров&lt;br/&gt;&lt;/font&gt;&lt;/p&gt;&lt;/div&gt;" style="verticalAlign=middle;align=center;vsdxID=3;fillColor=#f4f8fa;gradientColor=#c0cee2;shape=stencil(vVHLDsIgEPwajiQI6RfU+h8bu22JCGRB2/69kG1iazx58DazM/vIjjBtmiCi0CplCjecbZ8nYc5Ca+snJJsLEqYTph0C4Ujh4XvmEaqzont41gkL96naodXKrGF6YSfQtUi0OXXDVlqPfJNP6usotUhYbJIUMmQb/GGrAxpRljVycDBuc1hKM2LclX8/7H9nFfB+82Cd45T2+mcspcSRmu4F);strokeColor=#003399;spacingTop=1;spacingBottom=-1;labelBackgroundColor=none;rounded=0;html=1;whiteSpace=wrap;" parent="1" vertex="1"><mxGeometry x="347" y="294" width="140" height="74" as="geometry"/></mxCell><mxCell id="5" style="vsdxID=6;fillColor=#ffffff;gradientColor=#9cc3e5;shape=stencil(tZPdEoIgEIWfhksdhTHr2uo9mERlInFWSnv7oKUaKp2aqbv9+XY5coSwom94JwhNegN6LwZZmoawNaFUto0AaWxE2IawotIgatDHtsS844500UGf3IYR57LEjdDkjCnNrukWUQ472wKPpss4XyENHk9pnDEsvd/nszHio+wj0IYbqdugpzjUIrJHRZXitd+LrX4Qonsp/0yc/9i/qLPB48orqRQ6du9P+REqZHkcGKJkO+3dPJwm83Qow91dgN/GPxGymEGX+fziL/7OLzQEbjw5YYPnx2JL+NDY5gI=);strokeColor=#003399;strokeWidth=2;spacingTop=-3;spacingBottom=-3;spacingLeft=-3;spacingRight=-3;labelBackgroundColor=#FFFFFF;rounded=0;html=1;whiteSpace=wrap;" parent="1" vertex="1"><mxGeometry x="59" y="288" width="33" height="66" as="geometry"/></mxCell><mxCell id="6" value="&lt;div style=&quot;font-size: 1px&quot;&gt;&lt;p style=&quot;align:center;margin-left:0;margin-right:0;margin-top:0px;margin-bottom:0px;text-indent:0;valign:middle;direction:rtl;&quot;&gt;&lt;font style=&quot;font-size:12.7px;font-family:Tahoma;color:#000000;direction:ltr;letter-spacing:0px;line-height:90%;opacity:1&quot;&gt;П1.Оператор БД&lt;br/&gt;&lt;/font&gt;&lt;/p&gt;&lt;/div&gt;" style="text;vsdxID=6;fillColor=none;gradientColor=none;strokeColor=none;strokeWidth=2;spacingTop=-3;spacingBottom=-3;spacingLeft=-3;spacingRight=-3;labelBackgroundColor=#FFFFFF;rounded=0;html=1;whiteSpace=wrap;verticalAlign=middle;align=center;;html=1;" parent="5" vertex="1"><mxGeometry x="-32.3" y="32.28" width="99.82" height="11.44" as="geometry"/></mxCell><mxCell id="7" value="&lt;div style=&quot;font-size: 1px&quot;&gt;&lt;p style=&quot;align:center;margin-left:0;margin-right:0;margin-top:0px;margin-bottom:0px;text-indent:0;valign:middle;direction:ltr;&quot;&gt;&lt;font style=&quot;font-size:15.52px;font-family:Tahoma;color:#000000;direction:ltr;letter-spacing:0px;line-height:90%;opacity:1&quot;&gt;&lt;b&gt;Генератор записей прочтения номеров&lt;/b&gt;&lt;/font&gt;&lt;font style=&quot;font-size:15.52px;font-family:Tahoma;color:#000000;direction:ltr;letter-spacing:0px;line-height:90%;opacity:1&quot;&gt;&lt;br/&gt;&lt;/font&gt;&lt;/p&gt;&lt;/div&gt;" style="verticalAlign=middle;align=center;vsdxID=7;fillColor=none;gradientColor=none;shape=stencil(nZBLDoAgDERP0z3SIyjew0SURgSD+Lu9kMZoXLhwN9O+tukAlrNpJg1SzDH4QW/URgNYgZTkjA4UkwJUgGXng+6DX1zLfmoymdXo17xh5zmRJ6Q42BWCfc2oJfdAr+Yv+AP9Cb7OJ3H/2JG1HNGz/84klThPVCc=);strokeColor=none;labelBackgroundColor=none;rounded=0;html=1;whiteSpace=wrap;" parent="1" vertex="1"><mxGeometry x="133" y="63" width="590" height="24" as="geometry"/></mxCell><mxCell id="8" value="&lt;div style=&quot;font-size: 1px&quot;&gt;&lt;p style=&quot;align:center;margin-left:0;margin-right:0;margin-top:0px;margin-bottom:0px;text-indent:0;valign:middle;direction:ltr;&quot;&gt;&lt;font style=&quot;font-size:10.58px;font-family:Tahoma;color:#000000;direction:ltr;letter-spacing:0px;line-height:80%;opacity:1&quot;&gt;ВИ.1.02.01.Сформировать набор вариантов прочтения заданного набора российских номеров&lt;br/&gt;&lt;/font&gt;&lt;/p&gt;&lt;/div&gt;" style="verticalAlign=middle;align=center;vsdxID=8;fillColor=#f4f8fa;gradientColor=#c0cee2;shape=stencil(vVHLDsIgEPwajiQI6RfU+h8bu22JCGRB2/69kG1iazx58DazM/vIjjBtmiCi0CplCjecbZ8nYc5Ca+snJJsLEqYTph0C4Ujh4XvmEaqzont41gkL96naodXKrGF6YSfQtUi0OXXDVlqPfJNP6usotUhYbJIUMmQb/GGrAxpRljVycDBuc1hKM2LclX8/7H9nFfB+82Cd45T2+mcspcSRmu4F);strokeColor=#003399;spacingTop=4;spacingBottom=-1;labelBackgroundColor=none;rounded=0;html=1;whiteSpace=wrap;" parent="1" vertex="1"><mxGeometry x="149" y="174" width="140" height="74" as="geometry"/></mxCell><mxCell id="9" value="&lt;div style=&quot;font-size: 1px&quot;&gt;&lt;p style=&quot;align:center;margin-left:0;margin-right:0;margin-top:0px;margin-bottom:0px;text-indent:0;valign:middle;direction:ltr;&quot;&gt;&lt;font style=&quot;font-size:10.58px;font-family:Tahoma;color:#000000;direction:ltr;letter-spacing:0px;line-height:80%;opacity:1&quot;&gt;ВИ.1.02.0&lt;/font&gt;&lt;font style=&quot;font-size:10.58px;font-family:Tahoma;color:#000000;direction:ltr;letter-spacing:0px;line-height:80%;opacity:1&quot;&gt;2&lt;/font&gt;&lt;font style=&quot;font-size:10.58px;font-family:Tahoma;color:#000000;direction:ltr;letter-spacing:0px;line-height:80%;opacity:1&quot;&gt;.Сформировать набор вариантов прочтения заданного набора латвийских номеров&lt;br/&gt;&lt;/font&gt;&lt;/p&gt;&lt;/div&gt;" style="verticalAlign=middle;align=center;vsdxID=9;fillColor=#f4f8fa;gradientColor=#c0cee2;shape=stencil(vVHLDsIgEPwajiQI6RfU+h8bu22JCGRB2/69kG1iazx58DazM/vIjjBtmiCi0CplCjecbZ8nYc5Ca+snJJsLEqYTph0C4Ujh4XvmEaqzont41gkL96naodXKrGF6YSfQtUi0OXXDVlqPfJNP6usotUhYbJIUMmQb/GGrAxpRljVycDBuc1hKM2LclX8/7H9nFfB+82Cd45T2+mcspcSRmu4F);strokeColor=#003399;spacingTop=4;spacingBottom=-1;labelBackgroundColor=none;rounded=0;html=1;whiteSpace=wrap;" parent="1" vertex="1"><mxGeometry x="149" y="254" width="140" height="74" as="geometry"/></mxCell><mxCell id="10" value="&lt;div style=&quot;font-size: 1px&quot;&gt;&lt;p style=&quot;align:center;margin-left:0;margin-right:0;margin-top:0px;margin-bottom:0px;text-indent:0;valign:middle;direction:ltr;&quot;&gt;&lt;font style=&quot;font-size:10.58px;font-family:Tahoma;color:#000000;direction:ltr;letter-spacing:0px;line-height:80%;opacity:1&quot;&gt;ВИ.1.02.0&lt;/font&gt;&lt;font style=&quot;font-size:10.58px;font-family:Tahoma;color:#000000;direction:ltr;letter-spacing:0px;line-height:80%;opacity:1&quot;&gt;3&lt;/font&gt;&lt;font style=&quot;font-size:10.58px;font-family:Tahoma;color:#000000;direction:ltr;letter-spacing:0px;line-height:80%;opacity:1&quot;&gt;.Сформировать набор вариантов прочтения заданного набора литовских номеров&lt;br/&gt;&lt;/font&gt;&lt;/p&gt;&lt;/div&gt;" style="verticalAlign=middle;align=center;vsdxID=10;fillColor=#f4f8fa;gradientColor=#c0cee2;shape=stencil(vVHLDsIgEPwajiQI6RfU+h8bu22JCGRB2/69kG1iazx58DazM/vIjjBtmiCi0CplCjecbZ8nYc5Ca+snJJsLEqYTph0C4Ujh4XvmEaqzont41gkL96naodXKrGF6YSfQtUi0OXXDVlqPfJNP6usotUhYbJIUMmQb/GGrAxpRljVycDBuc1hKM2LclX8/7H9nFfB+82Cd45T2+mcspcSRmu4F);strokeColor=#003399;spacingTop=4;spacingBottom=-1;labelBackgroundColor=none;rounded=0;html=1;whiteSpace=wrap;" parent="1" vertex="1"><mxGeometry x="149" y="334" width="140" height="74" as="geometry"/></mxCell><mxCell id="11" value="&lt;div style=&quot;font-size: 1px&quot;&gt;&lt;p style=&quot;align:center;margin-left:0;margin-right:0;margin-top:0px;margin-bottom:0px;text-indent:0;valign:middle;direction:ltr;&quot;&gt;&lt;font style=&quot;font-size:10.58px;font-family:Tahoma;color:#000000;direction:ltr;letter-spacing:0px;line-height:80%;opacity:1&quot;&gt;ВИ.1.02.0&lt;/font&gt;&lt;font style=&quot;font-size:10.58px;font-family:Tahoma;color:#000000;direction:ltr;letter-spacing:0px;line-height:80%;opacity:1&quot;&gt;4&lt;/font&gt;&lt;font style=&quot;font-size:10.58px;font-family:Tahoma;color:#000000;direction:ltr;letter-spacing:0px;line-height:80%;opacity:1&quot;&gt;.Сформировать набор вариантов прочтения заданного набора эстонских номеров&lt;br/&gt;&lt;/font&gt;&lt;/p&gt;&lt;/div&gt;" style="verticalAlign=middle;align=center;vsdxID=11;fillColor=#f4f8fa;gradientColor=#c0cee2;shape=stencil(vVHLDsIgEPwajiQI6RfU+h8bu22JCGRB2/69kG1iazx58DazM/vIjjBtmiCi0CplCjecbZ8nYc5Ca+snJJsLEqYTph0C4Ujh4XvmEaqzont41gkL96naodXKrGF6YSfQtUi0OXXDVlqPfJNP6usotUhYbJIUMmQb/GGrAxpRljVycDBuc1hKM2LclX8/7H9nFfB+82Cd45T2+mcspcSRmu4F);strokeColor=#003399;spacingTop=4;spacingBottom=-1;labelBackgroundColor=none;rounded=0;html=1;whiteSpace=wrap;" parent="1" vertex="1"><mxGeometry x="149" y="414" width="140" height="74" as="geometry"/></mxCell><mxCell id="12" value="&lt;div style=&quot;font-size: 1px&quot;&gt;&lt;p style=&quot;align:center;margin-left:0;margin-right:0;margin-top:0px;margin-bottom:0px;text-indent:0;valign:middle;direction:ltr;&quot;&gt;&lt;font style=&quot;font-size:10.58px;font-family:Tahoma;color:#000000;direction:ltr;letter-spacing:0px;line-height:80%;opacity:1&quot;&gt;ВИ.1.02.0&lt;/font&gt;&lt;font style=&quot;font-size:10.58px;font-family:Tahoma;color:#000000;direction:ltr;letter-spacing:0px;line-height:80%;opacity:1&quot;&gt;5&lt;/font&gt;&lt;font style=&quot;font-size:10.58px;font-family:Tahoma;color:#000000;direction:ltr;letter-spacing:0px;line-height:80%;opacity:1&quot;&gt;.Сформировать набор вариантов прочтения заданного набора финских&lt;br/&gt;номеров&lt;br/&gt;&lt;/font&gt;&lt;/p&gt;&lt;/div&gt;" style="verticalAlign=middle;align=center;vsdxID=12;fillColor=#f4f8fa;gradientColor=#c0cee2;shape=stencil(vVHLDsIgEPwajiQI6RfU+h8bu22JCGRB2/69kG1iazx58DazM/vIjjBtmiCi0CplCjecbZ8nYc5Ca+snJJsLEqYTph0C4Ujh4XvmEaqzont41gkL96naodXKrGF6YSfQtUi0OXXDVlqPfJNP6usotUhYbJIUMmQb/GGrAxpRljVycDBuc1hKM2LclX8/7H9nFfB+82Cd45T2+mcspcSRmu4F);strokeColor=#003399;spacingTop=4;spacingBottom=-1;labelBackgroundColor=none;rounded=0;html=1;whiteSpace=wrap;" parent="1" vertex="1"><mxGeometry x="149" y="494" width="140" height="74" as="geometry"/></mxCell><mxCell id="13" value="&lt;div style=&quot;font-size: 1px&quot;&gt;&lt;p style=&quot;align:center;margin-left:0;margin-right:0;margin-top:0px;margin-bottom:0px;text-indent:0;valign:middle;direction:ltr;&quot;&gt;&lt;font style=&quot;font-size:10.58px;font-family:Tahoma;color:#000000;direction:ltr;letter-spacing:0px;line-height:80%;opacity:1&quot;&gt;ВИ.1.02.06.Варианты прочтения формировать на основании заданного справочника символов&lt;br/&gt;&lt;/font&gt;&lt;/p&gt;&lt;/div&gt;" style="verticalAlign=middle;align=center;vsdxID=23;fillColor=#f4f8fa;gradientColor=#c0cee2;shape=stencil(vVHLDsIgEPwajiQI6RfU+h8bu22JCGRB2/69kG1iazx58DazM/vIjjBtmiCi0CplCjecbZ8nYc5Ca+snJJsLEqYTph0C4Ujh4XvmEaqzont41gkL96naodXKrGF6YSfQtUi0OXXDVlqPfJNP6usotUhYbJIUMmQb/GGrAxpRljVycDBuc1hKM2LclX8/7H9nFfB+82Cd45T2+mcspcSRmu4F);strokeColor=#003399;spacingTop=1;spacingBottom=-1;labelBackgroundColor=none;rounded=0;html=1;whiteSpace=wrap;" parent="1" vertex="1"><mxGeometry x="462" y="191" width="140" height="74" as="geometry"/></mxCell><mxCell id="14" value="&lt;div style=&quot;font-size: 1px&quot;&gt;&lt;p style=&quot;align:center;margin-left:0;margin-right:0;margin-top:0px;margin-bottom:0px;text-indent:0;valign:middle;direction:ltr;&quot;&gt;&lt;font style=&quot;font-size:10.58px;font-family:Tahoma;color:#000000;direction:ltr;letter-spacing:0px;line-height:80%;opacity:1&quot;&gt;ВИ.1.02.07.Варианты прочтения формировать с приоритетом длинных кодов&lt;br/&gt;&lt;/font&gt;&lt;/p&gt;&lt;/div&gt;" style="verticalAlign=middle;align=center;vsdxID=24;fillColor=#f4f8fa;gradientColor=#c0cee2;shape=stencil(vVHLDsIgEPwajiQI6RfU+h8bu22JCGRB2/69kG1iazx58DazM/vIjjBtmiCi0CplCjecbZ8nYc5Ca+snJJsLEqYTph0C4Ujh4XvmEaqzont41gkL96naodXKrGF6YSfQtUi0OXXDVlqPfJNP6usotUhYbJIUMmQb/GGrAxpRljVycDBuc1hKM2LclX8/7H9nFfB+82Cd45T2+mcspcSRmu4F);strokeColor=#003399;spacingTop=4;spacingBottom=-1;labelBackgroundColor=none;rounded=0;html=1;whiteSpace=wrap;" parent="1" vertex="1"><mxGeometry x="572" y="254" width="140" height="74" as="geometry"/></mxCell><mxCell id="15" value="&lt;div style=&quot;font-size: 1px&quot;&gt;&lt;p style=&quot;margin-left: 0 ; margin-right: 0 ; margin-top: 0px ; margin-bottom: 0px ; text-indent: 0 ; direction: ltr&quot;&gt;&lt;font style=&quot;font-size: 10.58px ; font-family: &amp;#34;tahoma&amp;#34; ; color: #000000 ; direction: ltr ; letter-spacing: 0px ; line-height: 80% ; opacity: 1&quot;&gt;ВИ.1.02.08.Варианты прочтения кодов со спутниками формировать и со спутниками и без&lt;br&gt;&lt;/font&gt;&lt;/p&gt;&lt;/div&gt;" style="verticalAlign=middle;align=center;vsdxID=25;fillColor=#f4f8fa;gradientColor=#c0cee2;shape=stencil(vVHLDsIgEPwajiQI6RfU+h8bu22JCGRB2/69kG1iazx58DazM/vIjjBtmiCi0CplCjecbZ8nYc5Ca+snJJsLEqYTph0C4Ujh4XvmEaqzont41gkL96naodXKrGF6YSfQtUi0OXXDVlqPfJNP6usotUhYbJIUMmQb/GGrAxpRljVycDBuc1hKM2LclX8/7H9nFfB+82Cd45T2+mcspcSRmu4F);strokeColor=#003399;spacingTop=1;spacingBottom=-1;labelBackgroundColor=none;rounded=0;html=1;whiteSpace=wrap;" parent="1" vertex="1"><mxGeometry x="522" y="368" width="140" height="74" as="geometry"/></mxCell><mxCell id="16" style="vsdxID=18;edgeStyle=none;startArrow=none;endArrow=none;startSize=5;endSize=5;strokeColor=#5692c9;spacingTop=0;spacingBottom=0;spacingLeft=0;spacingRight=0;verticalAlign=middle;html=1;labelBackgroundColor=none;rounded=0;exitX=1;exitY=0.24242424242424243;exitDx=0;exitDy=0;exitPerimeter=0;entryX=0.007142857142857143;entryY=0.5945945945945946;entryDx=0;entryDy=0;entryPerimeter=0;" parent="1" source="5" target="9" edge="1"><mxGeometry relative="1" as="geometry"><mxPoint x="-1" as="offset"/><Array as="points"/></mxGeometry></mxCell><mxCell id="17" style="vsdxID=4;edgeStyle=none;startArrow=none;endArrow=none;startSize=5;endSize=5;strokeColor=#5692c9;spacingTop=0;spacingBottom=0;spacingLeft=0;spacingRight=0;verticalAlign=middle;html=1;labelBackgroundColor=none;rounded=0;exitX=1;exitY=0.24242424242424243;exitDx=0;exitDy=0;exitPerimeter=0;entryX=0.06428571428571428;entryY=0.7297297297297297;entryDx=0;entryDy=0;entryPerimeter=0;" parent="1" source="5" target="3" edge="1"><mxGeometry relative="1" as="geometry"><mxPoint y="-1" as="offset"/><Array as="points"/></mxGeometry></mxCell><mxCell id="18" style="vsdxID=5;edgeStyle=none;startArrow=none;endArrow=none;startSize=5;endSize=5;strokeColor=#5692c9;spacingTop=0;spacingBottom=0;spacingLeft=0;spacingRight=0;verticalAlign=middle;html=1;labelBackgroundColor=none;rounded=0;exitX=1;exitY=0.24242424242424243;exitDx=0;exitDy=0;exitPerimeter=0;entryX=0;entryY=0.527027027027027;entryDx=0;entryDy=0;entryPerimeter=0;" parent="1" source="5" target="8" edge="1"><mxGeometry relative="1" as="geometry"><mxPoint y="-1" as="offset"/><Array as="points"/></mxGeometry></mxCell><mxCell id="19" value="&lt;div style=&quot;font-size: 1px&quot;&gt;&lt;p style=&quot;align:left;margin-left:0;margin-right:0;margin-top:0px;margin-bottom:0px;text-indent:0;valign:middle;direction:ltr;&quot;&gt;&lt;/p&gt;&lt;/div&gt;" style="vsdxID=13;edgeStyle=none;startArrow=none;endFill=0;endArrow=block;startSize=5;endSize=7;strokeColor=#6b9bc7;spacingTop=0;spacingBottom=0;spacingLeft=0;spacingRight=0;verticalAlign=middle;html=1;labelBackgroundColor=#FFFFFF;rounded=0;align=left;exitX=0.9928571428571429;exitY=0.47297297297297297;exitDx=0;exitDy=0;exitPerimeter=0;entryX=0;entryY=0.527027027027027;entryDx=0;entryDy=0;entryPerimeter=0;" parent="1" source="12" target="4" edge="1"><mxGeometry relative="1" as="geometry"><mxPoint as="offset"/><Array as="points"><mxPoint x="316.07" y="529"/><mxPoint x="316.07" y="333.59"/></Array></mxGeometry></mxCell><mxCell id="20" parent="1" vertex="1"><mxGeometry x="317" y="333" as="geometry"/></mxCell><mxCell id="21" value="&lt;div style=&quot;font-size: 1px&quot;&gt;&lt;p style=&quot;align:left;margin-left:0;margin-right:0;margin-top:0px;margin-bottom:0px;text-indent:0;valign:middle;direction:ltr;&quot;&gt;&lt;/p&gt;&lt;/div&gt;" style="vsdxID=14;edgeStyle=none;startArrow=none;endArrow=none;startSize=5;endSize=7;strokeColor=#6b9bc7;spacingTop=0;spacingBottom=0;spacingLeft=0;spacingRight=0;verticalAlign=middle;html=1;labelBackgroundColor=#FFFFFF;rounded=0;align=left;entryX=0.9928571428571429;entryY=0.47297297297297297;entryDx=0;entryDy=0;entryPerimeter=0;" parent="1" source="20" target="8" edge="1"><mxGeometry relative="1" as="geometry"><mxPoint y="-1" as="offset"/><Array as="points"><mxPoint x="317" y="208.41"/></Array></mxGeometry></mxCell><mxCell id="22" parent="1" vertex="1"><mxGeometry x="317" y="289" as="geometry"/></mxCell><mxCell id="23" value="&lt;div style=&quot;font-size: 1px&quot;&gt;&lt;p style=&quot;align:left;margin-left:0;margin-right:0;margin-top:0px;margin-bottom:0px;text-indent:0;valign:middle;direction:ltr;&quot;&gt;&lt;/p&gt;&lt;/div&gt;" style="vsdxID=15;edgeStyle=none;startArrow=none;endArrow=none;startSize=5;endSize=7;strokeColor=#6b9bc7;spacingTop=0;spacingBottom=0;spacingLeft=0;spacingRight=0;verticalAlign=middle;html=1;labelBackgroundColor=#FFFFFF;rounded=0;align=left;entryX=0.9928571428571429;entryY=0.47297297297297297;entryDx=0;entryDy=0;entryPerimeter=0;" parent="1" source="22" target="9" edge="1"><mxGeometry relative="1" as="geometry"><mxPoint x="-1" as="offset"/><Array as="points"/></mxGeometry></mxCell><mxCell id="24" value="&lt;div style=&quot;font-size: 1px&quot;&gt;&lt;p style=&quot;align:center;margin-left:0;margin-right:0;margin-top:0px;margin-bottom:0px;text-indent:0;valign:middle;direction:ltr;&quot;&gt;&lt;font style=&quot;font-size:11.29px;font-family:Calibri;color:#41729d;direction:ltr;letter-spacing:0px;line-height:120%;opacity:1&quot;&gt;&amp;lt;&amp;lt;&lt;/font&gt;&lt;font style=&quot;font-size:11.29px;font-family:Calibri;color:#41729d;direction:ltr;letter-spacing:0px;line-height:120%;opacity:1&quot;&gt;в&lt;/font&gt;&lt;font style=&quot;font-size:11.29px;font-family:Calibri;color:#41729d;direction:ltr;letter-spacing:0px;line-height:120%;opacity:1&quot;&gt;ключает&amp;gt;&lt;/font&gt;&lt;font style=&quot;font-size:11.29px;font-family:Calibri;color:#41729d;direction:ltr;letter-spacing:0px;line-height:120%;opacity:1&quot;&gt;&amp;gt;&lt;br/&gt;&lt;/font&gt;&lt;/p&gt;&lt;/div&gt;" style="vsdxID=30;edgeStyle=none;dashed=1;startArrow=open;endArrow=none;startSize=7;endSize=5;strokeColor=#5692c9;spacingTop=0;spacingBottom=0;spacingLeft=0;spacingRight=0;verticalAlign=middle;html=1;labelBackgroundColor=none;rounded=0;align=center;exitX=0.9357142857142857;exitY=0.7297297297297297;exitDx=0;exitDy=0;exitPerimeter=0;entryX=0.1357142857142857;entryY=0.14864864864864866;entryDx=0;entryDy=0;entryPerimeter=0;" parent="1" source="4" target="15" edge="1"><mxGeometry relative="1" as="geometry"><mxPoint x="-1" y="-1" as="offset"/><Array as="points"/></mxGeometry></mxCell><mxCell id="25" value="&lt;div style=&quot;font-size: 1px&quot;&gt;&lt;p style=&quot;align:center;margin-left:0;margin-right:0;margin-top:0px;margin-bottom:0px;text-indent:0;valign:middle;direction:ltr;&quot;&gt;&lt;font style=&quot;font-size:11.29px;font-family:Calibri;color:#41729d;direction:ltr;letter-spacing:0px;line-height:120%;opacity:1&quot;&gt;&amp;lt;&amp;lt;&lt;/font&gt;&lt;font style=&quot;font-size:11.29px;font-family:Calibri;color:#41729d;direction:ltr;letter-spacing:0px;line-height:120%;opacity:1&quot;&gt;в&lt;/font&gt;&lt;font style=&quot;font-size:11.29px;font-family:Calibri;color:#41729d;direction:ltr;letter-spacing:0px;line-height:120%;opacity:1&quot;&gt;ключает&amp;gt;&lt;/font&gt;&lt;font style=&quot;font-size:11.29px;font-family:Calibri;color:#41729d;direction:ltr;letter-spacing:0px;line-height:120%;opacity:1&quot;&gt;&amp;gt;&lt;br/&gt;&lt;/font&gt;&lt;/p&gt;&lt;/div&gt;" style="vsdxID=29;edgeStyle=none;dashed=1;startArrow=open;endArrow=none;startSize=7;endSize=5;strokeColor=#5692c9;spacingTop=0;spacingBottom=0;spacingLeft=0;spacingRight=0;verticalAlign=middle;html=1;labelBackgroundColor=none;rounded=0;align=center;exitX=0.8571428571428571;exitY=0.14864864864864866;exitDx=0;exitDy=0;exitPerimeter=0;entryX=0.34285714285714286;entryY=0.972972972972973;entryDx=0;entryDy=0;entryPerimeter=0;" parent="1" source="4" target="13" edge="1"><mxGeometry relative="1" as="geometry"><mxPoint x="-1" as="offset"/><Array as="points"/></mxGeometry></mxCell><mxCell id="26" value="&lt;div style=&quot;font-size: 1px&quot;&gt;&lt;p style=&quot;align:center;margin-left:0;margin-right:0;margin-top:0px;margin-bottom:0px;text-indent:0;valign:middle;direction:ltr;&quot;&gt;&lt;font style=&quot;font-size:11.29px;font-family:Calibri;color:#41729d;direction:ltr;letter-spacing:0px;line-height:120%;opacity:1&quot;&gt;&amp;lt;&amp;lt;&lt;/font&gt;&lt;font style=&quot;font-size:11.29px;font-family:Calibri;color:#41729d;direction:ltr;letter-spacing:0px;line-height:120%;opacity:1&quot;&gt;в&lt;/font&gt;&lt;font style=&quot;font-size:11.29px;font-family:Calibri;color:#41729d;direction:ltr;letter-spacing:0px;line-height:120%;opacity:1&quot;&gt;ключает&amp;gt;&lt;/font&gt;&lt;font style=&quot;font-size:11.29px;font-family:Calibri;color:#41729d;direction:ltr;letter-spacing:0px;line-height:120%;opacity:1&quot;&gt;&amp;gt;&lt;br/&gt;&lt;/font&gt;&lt;/p&gt;&lt;/div&gt;" style="vsdxID=27;edgeStyle=none;dashed=1;startArrow=open;endArrow=none;startSize=7;endSize=5;strokeColor=#5692c9;spacingTop=0;spacingBottom=0;spacingLeft=0;spacingRight=0;verticalAlign=middle;html=1;labelBackgroundColor=none;rounded=0;align=center;exitX=0.9928571428571429;exitY=0.47297297297297297;exitDx=0;exitDy=0;exitPerimeter=0;entryX=0;entryY=0.527027027027027;entryDx=0;entryDy=0;entryPerimeter=0;" parent="1" source="4" target="14" edge="1"><mxGeometry relative="1" as="geometry"><mxPoint y="-1" as="offset"/><Array as="points"/></mxGeometry></mxCell><mxCell id="27" style="vsdxID=21;edgeStyle=none;startArrow=none;endArrow=none;startSize=5;endSize=5;strokeColor=#5692c9;spacingTop=0;spacingBottom=0;spacingLeft=0;spacingRight=0;verticalAlign=middle;html=1;labelBackgroundColor=none;rounded=0;exitX=1;exitY=0.24242424242424243;exitDx=0;exitDy=0;exitPerimeter=0;entryX=0.05;entryY=0.2702702702702703;entryDx=0;entryDy=0;entryPerimeter=0;" parent="1" source="5" target="12" edge="1"><mxGeometry relative="1" as="geometry"><mxPoint x="-1" y="-1" as="offset"/><Array as="points"/></mxGeometry></mxCell><mxCell id="28" style="vsdxID=20;edgeStyle=none;startArrow=none;endArrow=none;startSize=5;endSize=5;strokeColor=#5692c9;spacingTop=0;spacingBottom=0;spacingLeft=0;spacingRight=0;verticalAlign=middle;html=1;labelBackgroundColor=none;rounded=0;exitX=1;exitY=0.24242424242424243;exitDx=0;exitDy=0;exitPerimeter=0;entryX=0.05;entryY=0.2702702702702703;entryDx=0;entryDy=0;entryPerimeter=0;" parent="1" source="5" target="11" edge="1"><mxGeometry relative="1" as="geometry"><mxPoint as="offset"/><Array as="points"/></mxGeometry></mxCell><mxCell id="29" style="vsdxID=19;edgeStyle=none;startArrow=none;endArrow=none;startSize=5;endSize=5;strokeColor=#5692c9;spacingTop=0;spacingBottom=0;spacingLeft=0;spacingRight=0;verticalAlign=middle;html=1;labelBackgroundColor=none;rounded=0;exitX=1;exitY=0.24242424242424243;exitDx=0;exitDy=0;exitPerimeter=0;entryX=0.1357142857142857;entryY=0.14864864864864866;entryDx=0;entryDy=0;entryPerimeter=0;" parent="1" source="5" target="10" edge="1"><mxGeometry relative="1" as="geometry"><mxPoint x="-1" y="-1" as="offset"/><Array as="points"/></mxGeometry></mxCell><mxCell id="30" parent="1" vertex="1"><mxGeometry x="316" y="449" as="geometry"/></mxCell><mxCell id="31" value="&lt;div style=&quot;font-size: 1px&quot;&gt;&lt;p style=&quot;align:left;margin-left:0;margin-right:0;margin-top:0px;margin-bottom:0px;text-indent:0;valign:middle;direction:ltr;&quot;&gt;&lt;/p&gt;&lt;/div&gt;" style="vsdxID=17;edgeStyle=none;startArrow=none;endArrow=none;startSize=5;endSize=7;strokeColor=#6b9bc7;spacingTop=0;spacingBottom=0;spacingLeft=0;spacingRight=0;verticalAlign=middle;html=1;labelBackgroundColor=#FFFFFF;rounded=0;align=left;entryX=0.9928571428571429;entryY=0.47297297297297297;entryDx=0;entryDy=0;entryPerimeter=0;" parent="1" source="30" target="11" edge="1"><mxGeometry relative="1" as="geometry"><mxPoint as="offset"/><Array as="points"/></mxGeometry></mxCell><mxCell id="32" parent="1" vertex="1"><mxGeometry x="317" y="369" as="geometry"/></mxCell><mxCell id="33" value="&lt;div style=&quot;font-size: 1px&quot;&gt;&lt;p style=&quot;align:left;margin-left:0;margin-right:0;margin-top:0px;margin-bottom:0px;text-indent:0;valign:middle;direction:ltr;&quot;&gt;&lt;/p&gt;&lt;/div&gt;" style="vsdxID=16;edgeStyle=none;startArrow=none;endArrow=none;startSize=5;endSize=7;strokeColor=#6b9bc7;spacingTop=0;spacingBottom=0;spacingLeft=0;spacingRight=0;verticalAlign=middle;html=1;labelBackgroundColor=#FFFFFF;rounded=0;align=left;entryX=0.9928571428571429;entryY=0.47297297297297297;entryDx=0;entryDy=0;entryPerimeter=0;" parent="1" source="32" target="10" edge="1"><mxGeometry relative="1" as="geometry"><mxPoint x="-1" as="offset"/><Array as="points"/></mxGeometry></mxCell></root></mxGraphModel></diagram></mxfile>